<svg width="723" height="387" viewBox="0 0 723 387" fill="none" xmlns="http://www.w3.org/2000/svg">
<rect width="723" height="387" fill="white"/>
<path d="M453.15 233H379.654C379.43 237.952 375.195 241 369.73 241H351.3C345.635 241 341.291 236.632 341.367 233H268.85C266.182 233 264 234.8 264 237V241C264 249.8 272.73 257 283.4 257H438.6C449.27 257 458 249.8 458 241V237C458 234.8 455.817 233 453.15 233ZM438.6 141C438.6 134.4 432.052 129 424.05 129H297.95C289.947 129 283.4 134.4 283.4 141V225H438.6V141ZM419.2 209H302.8V145H419.2V209Z" fill="black"/>
<g clip-path="url(#clip0)">
<path d="M400.974 173.822C400.539 166.369 393.084 160.781 384.765 160.781H383.48C376.236 160.781 369.182 158.782 363.217 155.092C357.458 151.528 350.045 149.97 342.204 151.56C339.734 152.06 321.989 156.627 322 174.562C322.005 183.293 327.305 190.903 335.165 194.99V204.094C335.165 205.181 336.147 206.062 337.36 206.062H339.554C340.767 206.062 341.749 205.181 341.749 204.094V197.417C343.855 197.904 346.055 198.187 348.332 198.187C349.078 198.187 349.797 198.098 350.526 198.042V204.094C350.526 205.181 351.508 206.062 352.721 206.062H354.915C356.128 206.062 357.11 205.181 357.11 204.094V196.781C359.063 196.158 360.934 195.38 362.642 194.38C368.916 190.712 376.019 188.344 383.508 188.344C387.002 188.344 385.703 188.306 386.669 188.248L396.874 205.036C397.267 205.68 398.013 206.062 398.801 206.062C398.981 206.062 399.163 206.043 399.343 206.001C400.316 205.779 400.996 204.993 400.996 204.094C400.996 204.094 401.015 174.533 400.974 173.822ZM385.635 177.516C383.817 177.516 382.343 176.193 382.343 174.562C382.343 172.931 383.817 171.609 385.635 171.609C387.452 171.609 388.926 172.931 388.926 174.562C388.926 176.193 387.452 177.516 385.635 177.516ZM396.607 196.373L391.14 187.38C393.214 186.663 395.08 185.584 396.607 184.184V196.373Z" fill="black"/>
</g>
<defs>
<clipPath id="clip0">
<rect width="79" height="63" fill="white" transform="translate(322 147)"/>
</clipPath>
</defs>
</svg>
