<svg width="194" height="128" viewBox="0 0 194 128" fill="none" xmlns="http://www.w3.org/2000/svg">
<path d="M189.15 104H115.654C115.43 108.952 111.195 112 105.73 112H87.3C81.6346 112 77.2908 107.632 77.3666 104H4.85C2.1825 104 0 105.8 0 108V112C0 120.8 8.73 128 19.4 128H174.6C185.27 128 194 120.8 194 112V108C194 105.8 191.817 104 189.15 104ZM174.6 12C174.6 5.4 168.052 0 160.05 0H33.95C25.9475 0 19.4 5.4 19.4 12V96H174.6V12ZM155.2 80H38.8V16H155.2V80Z" fill="black"/>
<g clip-path="url(#clip0)">
<path d="M136.974 44.8218C136.539 37.3688 129.084 31.7812 120.765 31.7812H119.48C112.236 31.7812 105.182 29.7817 99.2171 26.0916C93.4581 22.5281 86.045 20.9704 78.204 22.5601C75.7338 23.0597 57.989 27.6272 58 45.5625C58.0055 54.2927 63.3051 61.9031 71.1653 65.9895V75.0937C71.1653 76.1815 72.1473 77.0625 73.3597 77.0625H75.5542C76.7666 77.0625 77.7486 76.1815 77.7486 75.0937V68.4172C79.8553 68.9045 82.0552 69.1875 84.3319 69.1875C85.0781 69.1875 85.7967 69.0977 86.5264 69.0423V75.0937C86.5264 76.1815 87.5084 77.0625 88.7208 77.0625H90.9153C92.1277 77.0625 93.1097 76.1815 93.1097 75.0937V67.7811C95.0628 67.1584 96.9335 66.3796 98.6425 65.3804C104.916 61.7124 112.019 59.3437 119.508 59.3437C123.002 59.3437 121.703 59.3056 122.669 59.2478L132.874 76.0363C133.267 76.6798 134.013 77.0625 134.801 77.0625C134.981 77.0625 135.163 77.0428 135.343 77.001C136.316 76.7795 136.996 75.9932 136.996 75.0937C136.996 75.0937 137.015 45.533 136.974 44.8218ZM121.635 48.5156C119.817 48.5156 118.343 47.1929 118.343 45.5625C118.343 43.9309 119.817 42.6094 121.635 42.6094C123.452 42.6094 124.926 43.9309 124.926 45.5625C124.926 47.1929 123.452 48.5156 121.635 48.5156ZM132.607 67.3725L127.14 58.3803C129.214 57.6629 131.08 56.5838 132.607 55.1835V67.3725Z" fill="black"/>
</g>
<defs>
<clipPath id="clip0">
<rect width="79" height="63" fill="white" transform="translate(58 18)"/>
</clipPath>
</defs>
</svg>
